<svg width="238" height="71" viewBox="0 0 238 71" fill="none" xmlns="http://www.w3.org/2000/svg">
<g id="Group 1000001833">
<g id="Group 625978">
<path id="Vector" fill-rule="evenodd" clip-rule="evenodd" d="M0 24.5662L18.4997 0.00145175L31.8325 0L13.5889 24.4192L35.323 48.1786L21.7403 48.1771L0 24.5662Z" fill="white"/>
<path id="Vector_2" fill-rule="evenodd" clip-rule="evenodd" d="M56.769 46.4338L38.2693 70.9985L24.9365 71L43.1801 46.5808L21.446 22.8214L35.0287 22.8229L56.769 46.4338Z" fill="white"/>
<path id="Vector_3" fill-rule="evenodd" clip-rule="evenodd" d="M21.9222 53.4381L21.918 70.85H12.0498V42.8867L21.9222 53.4381Z" fill="white"/>
<path id="Vector_4" d="M97.4122 15.1406C100.063 15.1406 101.673 15.9664 103.388 19.0693L120.588 50.1271C120.953 50.7986 120.797 51.3157 119.967 51.3157H113.366C112.691 51.3157 112.431 51.1614 112.17 50.6443L108.48 43.9798H84.0546L80.4688 50.6443C80.2088 51.1614 79.8985 51.3157 79.2736 51.3157H72.5172C71.6323 51.3157 71.4771 50.7986 71.842 50.1271L88.886 19.0693C90.6013 15.9706 92.1572 15.1406 94.3422 15.1406H97.408H97.4122ZM87.33 37.9826H105.204L96.9425 22.8436C96.7873 22.585 96.6321 22.4807 96.3721 22.4807H96.0617C95.8017 22.4807 95.6465 22.585 95.4914 22.8436L87.33 37.9826Z" fill="white"/>
<path id="Vector_5" d="M137.765 43.9717C132.414 43.9717 130.858 42.3702 130.858 36.8901V16.2753C130.858 15.6455 130.346 15.1367 129.713 15.1367H124.055C123.422 15.1367 122.91 15.6455 122.91 16.2753V37.67C122.91 47.5875 126.966 51.3076 137.463 51.3076H144.249C144.882 51.3076 145.394 50.7988 145.394 50.1691V45.1102C145.394 44.4805 144.882 43.9717 144.249 43.9717H137.769H137.765Z" fill="white"/>
<path id="Vector_6" d="M177.171 15.1409C188.444 15.1409 193.07 19.6367 193.07 29.7127V36.74C193.07 46.816 188.444 51.3118 177.171 51.3118H152.85C151.81 51.3118 151.29 50.7947 151.29 49.7604V16.6882C151.29 15.6539 151.81 15.1367 152.85 15.1367H177.171V15.1409ZM159.242 43.4587C159.242 43.9258 159.451 44.1302 159.917 44.1302H176.961C183.092 44.1302 185.118 42.1658 185.118 36.0686V30.3841C185.118 24.2868 183.092 22.3225 176.961 22.3225H159.917C159.451 22.3225 159.242 22.531 159.242 23.0482V43.4587Z" fill="white"/>
<path id="Vector_7" d="M234.683 15.1406C235.464 15.1406 235.824 15.5035 235.824 16.2792V21.1879C235.824 21.9636 235.464 22.3264 234.683 22.3264H208.648C206.672 22.3264 205.892 23.4108 205.892 25.2208V26.9766C205.892 28.8867 206.773 29.8709 208.593 29.8709H228.078C234.054 29.8709 237.17 33.0739 237.17 38.7583V42.8913C237.17 47.9042 234.26 51.3157 227.973 51.3157H199.186C198.406 51.3157 197.991 50.9529 197.991 50.1772V45.2685C197.991 44.4927 198.406 44.1341 199.186 44.1341H226.468C228.443 44.1341 229.219 43.0497 229.219 41.2397V39.1211C229.219 37.211 228.338 36.2268 226.518 36.2268H207.029C201.053 36.2268 197.937 33.0238 197.937 27.3394V23.5651C197.937 18.5521 200.847 15.1406 207.134 15.1406H234.675H234.683Z" fill="white"/>
</g>
</g>
</svg>
